<mxfile host="app.diagrams.net" modified="2023-12-09T14:18:36.597Z" agent="Mozilla/5.0 (Windows NT 10.0; Win64; x64) AppleWebKit/537.36 (KHTML, like Gecko) Chrome/118.0.0.0 Safari/537.36 OPR/104.0.0.0" etag="wbCTz_axsOigQrvwW_mw" version="22.1.7" type="device">
  <diagram name="Page-1" id="M4MDFa5sSMsEJrdapGiB">
    <mxGraphModel dx="869" dy="479" grid="1" gridSize="10" guides="1" tooltips="1" connect="1" arrows="1" fold="1" page="1" pageScale="1" pageWidth="850" pageHeight="1100" math="0" shadow="0">
      <root>
        <mxCell id="0" />
        <mxCell id="1" parent="0" />
        <mxCell id="NOS_KkqrvJjTrkYH_-k0-1" value="Customer" style="shape=umlActor;verticalLabelPosition=bottom;verticalAlign=top;html=1;" vertex="1" parent="1">
          <mxGeometry x="130" y="440" width="30" height="60" as="geometry" />
        </mxCell>
        <mxCell id="NOS_KkqrvJjTrkYH_-k0-2" value="" style="rounded=1;whiteSpace=wrap;html=1;fillColor=#d5e8d4;strokeColor=#82b366;" vertex="1" parent="1">
          <mxGeometry x="300" y="290" width="300" height="470" as="geometry" />
        </mxCell>
        <mxCell id="NOS_KkqrvJjTrkYH_-k0-3" value="&lt;font style=&quot;font-size: 10px;&quot;&gt;Login as a Customer&lt;/font&gt;" style="ellipse;whiteSpace=wrap;html=1;" vertex="1" parent="1">
          <mxGeometry x="335" y="330" width="90" height="50" as="geometry" />
        </mxCell>
        <mxCell id="NOS_KkqrvJjTrkYH_-k0-5" value="" style="endArrow=none;html=1;rounded=0;exitX=0.5;exitY=0.5;exitDx=0;exitDy=0;exitPerimeter=0;entryX=0;entryY=0.5;entryDx=0;entryDy=0;" edge="1" parent="1" source="NOS_KkqrvJjTrkYH_-k0-1" target="NOS_KkqrvJjTrkYH_-k0-3">
          <mxGeometry width="50" height="50" relative="1" as="geometry">
            <mxPoint x="320" y="510" as="sourcePoint" />
            <mxPoint x="370" y="460" as="targetPoint" />
          </mxGeometry>
        </mxCell>
        <mxCell id="NOS_KkqrvJjTrkYH_-k0-12" value="&amp;lt;&amp;lt;Website&amp;gt;&amp;gt;" style="text;html=1;strokeColor=none;fillColor=none;align=center;verticalAlign=middle;whiteSpace=wrap;rounded=0;" vertex="1" parent="1">
          <mxGeometry x="320" y="300" width="60" height="30" as="geometry" />
        </mxCell>
        <mxCell id="NOS_KkqrvJjTrkYH_-k0-15" value="&lt;font style=&quot;font-size: 10px;&quot;&gt;Access Event Pages&lt;/font&gt;" style="ellipse;whiteSpace=wrap;html=1;" vertex="1" parent="1">
          <mxGeometry x="332.5" y="520" width="90" height="50" as="geometry" />
        </mxCell>
        <mxCell id="NOS_KkqrvJjTrkYH_-k0-16" value="&lt;font style=&quot;font-size: 10px;&quot;&gt;Select Tickets (which are added to basket)&lt;/font&gt;" style="ellipse;whiteSpace=wrap;html=1;" vertex="1" parent="1">
          <mxGeometry x="332.5" y="580" width="95" height="50" as="geometry" />
        </mxCell>
        <mxCell id="NOS_KkqrvJjTrkYH_-k0-17" value="&lt;font style=&quot;font-size: 10px;&quot;&gt;Logout&lt;/font&gt;" style="ellipse;whiteSpace=wrap;html=1;" vertex="1" parent="1">
          <mxGeometry x="470" y="330" width="90" height="50" as="geometry" />
        </mxCell>
        <mxCell id="NOS_KkqrvJjTrkYH_-k0-18" value="&lt;font style=&quot;font-size: 10px;&quot;&gt;Download Receipt&lt;/font&gt;" style="ellipse;whiteSpace=wrap;html=1;" vertex="1" parent="1">
          <mxGeometry x="470" y="700" width="90" height="50" as="geometry" />
        </mxCell>
        <mxCell id="NOS_KkqrvJjTrkYH_-k0-19" value="&lt;font style=&quot;font-size: 10px;&quot;&gt;Place Order&lt;/font&gt;" style="ellipse;whiteSpace=wrap;html=1;" vertex="1" parent="1">
          <mxGeometry x="335" y="640" width="90" height="50" as="geometry" />
        </mxCell>
        <mxCell id="NOS_KkqrvJjTrkYH_-k0-23" value="" style="endArrow=none;html=1;rounded=0;exitX=0.5;exitY=0.5;exitDx=0;exitDy=0;exitPerimeter=0;entryX=0;entryY=0.5;entryDx=0;entryDy=0;" edge="1" parent="1" source="NOS_KkqrvJjTrkYH_-k0-1" target="NOS_KkqrvJjTrkYH_-k0-15">
          <mxGeometry width="50" height="50" relative="1" as="geometry">
            <mxPoint x="155" y="480" as="sourcePoint" />
            <mxPoint x="334" y="425" as="targetPoint" />
          </mxGeometry>
        </mxCell>
        <mxCell id="NOS_KkqrvJjTrkYH_-k0-24" value="" style="endArrow=none;html=1;rounded=0;exitX=0.5;exitY=0.5;exitDx=0;exitDy=0;exitPerimeter=0;entryX=0;entryY=0.5;entryDx=0;entryDy=0;" edge="1" parent="1" source="NOS_KkqrvJjTrkYH_-k0-1" target="NOS_KkqrvJjTrkYH_-k0-16">
          <mxGeometry width="50" height="50" relative="1" as="geometry">
            <mxPoint x="320" y="510" as="sourcePoint" />
            <mxPoint x="370" y="460" as="targetPoint" />
          </mxGeometry>
        </mxCell>
        <mxCell id="NOS_KkqrvJjTrkYH_-k0-25" value="" style="endArrow=none;html=1;rounded=0;exitX=0.5;exitY=0.5;exitDx=0;exitDy=0;exitPerimeter=0;entryX=0;entryY=0.5;entryDx=0;entryDy=0;" edge="1" parent="1" source="NOS_KkqrvJjTrkYH_-k0-1" target="NOS_KkqrvJjTrkYH_-k0-19">
          <mxGeometry width="50" height="50" relative="1" as="geometry">
            <mxPoint x="110" y="660" as="sourcePoint" />
            <mxPoint x="160" y="610" as="targetPoint" />
          </mxGeometry>
        </mxCell>
        <mxCell id="NOS_KkqrvJjTrkYH_-k0-26" value="" style="endArrow=none;dashed=1;html=1;rounded=0;exitX=1;exitY=0.5;exitDx=0;exitDy=0;entryX=0;entryY=0.5;entryDx=0;entryDy=0;" edge="1" parent="1" source="NOS_KkqrvJjTrkYH_-k0-3" target="NOS_KkqrvJjTrkYH_-k0-17">
          <mxGeometry width="50" height="50" relative="1" as="geometry">
            <mxPoint x="320" y="510" as="sourcePoint" />
            <mxPoint x="370" y="460" as="targetPoint" />
          </mxGeometry>
        </mxCell>
        <mxCell id="NOS_KkqrvJjTrkYH_-k0-27" value="" style="endArrow=none;dashed=1;html=1;rounded=0;exitX=1;exitY=0.5;exitDx=0;exitDy=0;entryX=0;entryY=0.5;entryDx=0;entryDy=0;" edge="1" parent="1" source="NOS_KkqrvJjTrkYH_-k0-19" target="NOS_KkqrvJjTrkYH_-k0-35">
          <mxGeometry width="50" height="50" relative="1" as="geometry">
            <mxPoint x="435" y="365" as="sourcePoint" />
            <mxPoint x="480" y="365" as="targetPoint" />
          </mxGeometry>
        </mxCell>
        <mxCell id="NOS_KkqrvJjTrkYH_-k0-29" value="&lt;font style=&quot;font-size: 10px;&quot;&gt;Create Account&lt;/font&gt;" style="ellipse;whiteSpace=wrap;html=1;" vertex="1" parent="1">
          <mxGeometry x="335" y="395" width="90" height="50" as="geometry" />
        </mxCell>
        <mxCell id="NOS_KkqrvJjTrkYH_-k0-30" value="&lt;font style=&quot;font-size: 10px;&quot;&gt;Edit Account&lt;/font&gt;" style="ellipse;whiteSpace=wrap;html=1;" vertex="1" parent="1">
          <mxGeometry x="335" y="460" width="90" height="50" as="geometry" />
        </mxCell>
        <mxCell id="NOS_KkqrvJjTrkYH_-k0-32" style="edgeStyle=orthogonalEdgeStyle;rounded=0;orthogonalLoop=1;jettySize=auto;html=1;exitX=0.5;exitY=1;exitDx=0;exitDy=0;" edge="1" parent="1" source="NOS_KkqrvJjTrkYH_-k0-2" target="NOS_KkqrvJjTrkYH_-k0-2">
          <mxGeometry relative="1" as="geometry" />
        </mxCell>
        <mxCell id="NOS_KkqrvJjTrkYH_-k0-33" value="" style="endArrow=none;html=1;rounded=0;exitX=0.5;exitY=0.5;exitDx=0;exitDy=0;exitPerimeter=0;entryX=0;entryY=0.5;entryDx=0;entryDy=0;" edge="1" parent="1" source="NOS_KkqrvJjTrkYH_-k0-1" target="NOS_KkqrvJjTrkYH_-k0-29">
          <mxGeometry width="50" height="50" relative="1" as="geometry">
            <mxPoint x="155" y="480" as="sourcePoint" />
            <mxPoint x="345" y="495" as="targetPoint" />
          </mxGeometry>
        </mxCell>
        <mxCell id="NOS_KkqrvJjTrkYH_-k0-34" value="" style="endArrow=none;html=1;rounded=0;exitX=0.5;exitY=0.5;exitDx=0;exitDy=0;exitPerimeter=0;entryX=0;entryY=0.5;entryDx=0;entryDy=0;" edge="1" parent="1" source="NOS_KkqrvJjTrkYH_-k0-1" target="NOS_KkqrvJjTrkYH_-k0-30">
          <mxGeometry width="50" height="50" relative="1" as="geometry">
            <mxPoint x="155" y="480" as="sourcePoint" />
            <mxPoint x="343" y="625" as="targetPoint" />
          </mxGeometry>
        </mxCell>
        <mxCell id="NOS_KkqrvJjTrkYH_-k0-35" value="&lt;font style=&quot;font-size: 10px;&quot;&gt;Apply Discount (optionally)&lt;/font&gt;" style="ellipse;whiteSpace=wrap;html=1;" vertex="1" parent="1">
          <mxGeometry x="470" y="640" width="90" height="50" as="geometry" />
        </mxCell>
        <mxCell id="NOS_KkqrvJjTrkYH_-k0-36" value="" style="endArrow=none;dashed=1;html=1;rounded=0;exitX=0.5;exitY=1;exitDx=0;exitDy=0;entryX=0.5;entryY=0;entryDx=0;entryDy=0;" edge="1" parent="1" source="NOS_KkqrvJjTrkYH_-k0-35" target="NOS_KkqrvJjTrkYH_-k0-18">
          <mxGeometry width="50" height="50" relative="1" as="geometry">
            <mxPoint x="435" y="675" as="sourcePoint" />
            <mxPoint x="480" y="675" as="targetPoint" />
          </mxGeometry>
        </mxCell>
      </root>
    </mxGraphModel>
  </diagram>
</mxfile>
